<svg id="helsinki-vaakuna" xmlns="http://www.w3.org/2000/svg" viewBox="0 0 64 64"><title>helsinki-seal-pos</title><path d="M42.14,19.77h-18c-.55,0-1.11,0-1.66,0a1.43,1.43,0,0,1-.38,0c-.21-.08-.58-.52-.06-.52H40c.55,0,1.11,0,1.66,0a1.43,1.43,0,0,1,.38,0C42.28,19.33,42.66,19.77,42.14,19.77Z" fill="#005eb8"/><path d="M32,16.85A1.45,1.45,0,1,1,32.19,14,1.45,1.45,0,0,1,32,16.85Zm0-2.38a.93.93,0,0,0,0,1.86,1,1,0,0,0,1-1,.93.93,0,0,0-1-.9Z" fill="#005eb8"/><path d="M37.64,20c-1.85,0-1.82,2.15,0,2.16S39.5,20,37.64,20Zm0,1.64c-1.18,0-1.22-1.14,0-1.12s1.21,1.16,0,1.16Z" fill="#005eb8"/><path d="M34.3,20.91c-.66-.3-1.71-1.08-2.44-1a6.14,6.14,0,0,0-1.44.68c-.37.18-1,.31-.61.78.24.3,1,.5,1.39.66a2,2,0,0,0,.88.34c.36,0,2.38-.85,2.38-1.24A.26.26,0,0,0,34.3,20.91Zm-2.28.9-1.5-.67,1.5-.71,1.54.71Z" fill="#005eb8"/><path d="M42,20.14c-.38-.23-2.21.77-2,1.2.13.24,1.73.94,2,.66a1.2,1.2,0,0,0,0-1.9Zm-.21,1.39-1-.4,1-.47A.67.67,0,0,1,41.79,21.53Z" fill="#005eb8"/><path d="M24.24,20.86c-.34-.15-1.52-.93-1.88-.74a1.1,1.1,0,0,0-.55,1c.09,1.71,1.64.62,2.44.26C24.5,21.26,24.37,21,24.24,20.86Zm-1.7.67a.64.64,0,0,1-.21-.43.58.58,0,0,1,.19-.44l1,.44Z" fill="#005eb8"/><path d="M26.47,20c-1.85,0-1.82,2.15,0,2.16S28.33,20,26.47,20Zm0,1.64c-1.18,0-1.22-1.14,0-1.12s1.21,1.16,0,1.16Z" fill="#005eb8"/><path d="M42.14,19.77c.48,0,.15-.44,0-.52s-.22,0-.3,0c-.45,0-.9,0-1.35,0h-18a1.44,1.44,0,0,0-.42,0c-.21.08-.59.52-.06.52Z" fill="#005eb8"/><path d="M44.78,11.57c-.62,0-.76.37-1.2.65s-1,.09-1.45.56a1.35,1.35,0,0,0-.36,1c0,.26.47.35.62.51a1,1,0,0,1-.93-.09c-.15-.1-.38-.54-.54-.56-.59-.08-.64,1-.64,1.31-1.37.32-1.17,1.48,0,1.9-.05.5.2,1.41.79,1.23.15,0,.28-.36.43-.46a1,1,0,0,1,.89-.1,2.62,2.62,0,0,1-2,.92,2.51,2.51,0,0,1-2.2-1.18,1.48,1.48,0,1,0-1.12,0,2.54,2.54,0,0,1-2.19,1.18,2.6,2.6,0,0,1-2.17-1.17c.46-.4,1,0,1.36.25s.23.45.6.15.31-.79.31-1.15c1.29-.17,1.09-1.56-.05-1.89a2.1,2.1,0,0,0-.36-1.25c-.3-.39-.73.5-1,.59h0a1.05,1.05,0,0,1,.22-.84c.11-.14.41-.16.47-.33.21-.57-1-.77-1.32-.72-.09-.4-.41-1-.87-1a1,1,0,0,0-1,1,1.53,1.53,0,0,0-1.27.42c-.3.3.23.44.35.57a1.1,1.1,0,0,1,.28.91h0c-.52-.2-.5-1-1-.47a1.54,1.54,0,0,0-.29,1.14c-.39.09-1,.44-1,.89s.56.93,1,1a1.62,1.62,0,0,0,.44,1.27c.24.24,1.09-1.1,1.88-.49a2.65,2.65,0,0,1-2.17,1.16A2.54,2.54,0,0,1,27,17.31,1.52,1.52,0,0,0,27.89,16a1.45,1.45,0,1,0-2,1.36,2.64,2.64,0,0,1-4.18.27,1.15,1.15,0,0,1,.83.07c.19.1.41.54.57.58.61.16.69-1,.69-1.3,1.26-.29,1.18-1.58,0-1.92a1.74,1.74,0,0,0-.39-1.24c-.26-.32-.41.11-.55.22-.36.28-.65.51-1.15.33.15-.17.61-.3.63-.51a1.35,1.35,0,0,0-.36-1c-.44-.46-1-.33-1.45-.56s-.55-.66-1.2-.65A1.5,1.5,0,0,0,17.84,13a.26.26,0,0,0,.26.26c.63-.05.87.4,1,.9a2.51,2.51,0,0,0,.21.73,1.59,1.59,0,0,0,.32.4,1.38,1.38,0,0,0-.15.62c0,.77.44.95.91,1.37s.2.26.28.79a9.23,9.23,0,0,1,.24,1.15.59.59,0,0,0-.14.44.71.71,0,0,0,.14.43c-.06.25-.33.44-.38.73a1.45,1.45,0,0,0,.08.8,1.43,1.43,0,0,0,.31.47.81.81,0,0,0-.15.48.67.67,0,0,0,.58.68H42.83a.66.66,0,0,0,.51-.68.81.81,0,0,0-.15-.48,1.41,1.41,0,0,0,.3-.46,1.49,1.49,0,0,0,.09-.82c-.06-.31-.32-.46-.39-.72a.75.75,0,0,0,.14-.45.62.62,0,0,0-.15-.42,9.11,9.11,0,0,1,.24-1.12l0-.35q-.18-.44.24-.42c.49-.41.95-.56,1-1.34a1.37,1.37,0,0,0-.16-.64,1.51,1.51,0,0,0,.31-.41,4.35,4.35,0,0,0,.19-.86,1.05,1.05,0,0,1,.43-.65c.2-.14.71,0,.71-.39a1.45,1.45,0,0,0-1.38-1.48C44.25,11.56,45.57,11.61,44.78,11.57ZM22.12,14.95a1.56,1.56,0,0,0,1.09-.52h0c.14.26-.07.66.06.89s.84.15,1,.61c-.16.45-.82.27-1,.6a3,3,0,0,0,0,.95A1.68,1.68,0,0,0,21.94,17a1.47,1.47,0,0,0,.41-1,1.4,1.4,0,0,0-.47-1h.24C22.3,14.95,22,15,22.12,14.95ZM42.2,17a1.52,1.52,0,0,0-1.36.5h0c-.12-.31.12-.71,0-.95s-.77-.28-1-.55c.23-.41.86-.3,1-.61s0-.69,0-1A1.66,1.66,0,0,0,42.2,15a1.42,1.42,0,0,0-.46,1,1.5,1.5,0,0,0,.46,1C41.92,17,41.92,16.73,42.2,17Zm-5.52-1a1,1,0,1,1,1.15.92h-.4a1,1,0,0,1-.75-.92C36.64,15.45,36.7,16.44,36.68,16ZM25.51,16a1,1,0,1,1,1.22.92h-.42a1,1,0,0,1-.8-.92C25.51,15.45,25.54,16.45,25.51,16Zm-5.62-1c-.7-.7-.18-1.88-1.5-2.11a1,1,0,0,1,.93-.72c.6,0,.56.46.94.69s.89-.1,1.34.35a.84.84,0,0,1,.22.46c-.25.12-.91.61-.73,1a1.84,1.84,0,0,0-1.2.28Zm1,2a.93.93,0,1,1,1-1,1,1,0,0,1-1,.92Zm21.79,5c-.35.2.43.82.1.86H21.39c-.3,0,0-.38,0-.39a.26.26,0,0,0,.2-.31.83.83,0,0,0-.32-.32c-.12-.25-.26-.33-.26-.63s.37-.5.45-.79-.16-.46-.07-.87a.26.26,0,0,0,.19-.31,1.7,1.7,0,0,0-.18-.34,4.18,4.18,0,0,1-.29-1.16h0a3.16,3.16,0,0,0,5.32-.2c.71.55,1.05,1.27,2.06,1.51a3.14,3.14,0,0,0,2.6-.55c.56-.43,1.19-1.13.52-1.69a1.48,1.48,0,0,0-2,.29c-.12-.32.14-.72,0-1s-.87,0-1-.49.85-.4,1-.64a3,3,0,0,0,0-1c.16.19,1.1.84,1.27.31a1.6,1.6,0,0,0-.44-1.7c.32-.12.73.13,1,0s.1-.77.52-1c.48.25.21.78.57,1s.65-.13,1,0a1.56,1.56,0,0,0-.44,1.69c0,.55,1.16-.19,1.23-.27a3,3,0,0,0,0,.93c.23.34.81.08,1,.58-.21.46-.62.25-.88.56-.1.21,0,.75,0,1h0c-.41-.55-1.89-.85-2.21-.07-.45,1.09,1.88,1.95,2.61,2a3.09,3.09,0,0,0,2.72-1.59A3,3,0,0,0,40.39,19,3.12,3.12,0,0,0,43,17.67a6.94,6.94,0,0,1-.38,1.21c-.11.48.19.34.21.74s-.39.23-.23.65.51.3.48.77S42.68,21.68,42.68,22Zm.55-5a.92.92,0,1,1,.12-1.84A.92.92,0,0,1,43.23,17Zm1.33-2.7a1,1,0,0,1-.33.7,1.64,1.64,0,0,0-1.2-.38c.06-.45-.33-.74-.69-.93a.84.84,0,0,1,.22-.5c.44-.43,1-.13,1.41-.43s.27-.64.86-.62a.92.92,0,0,1,.88.73,1.43,1.43,0,0,0-1.19,1.34Z" fill="#005eb8"/><path d="M56.42,42.63V5.6a5.22,5.22,0,0,0,0-1.39c-.18-.56-.73-.42-1.22-.42H10.06a12.74,12.74,0,0,0-1.88,0c-.27,0-.6,0-.6.42h0V46.49c0,.92,0,1.84,0,2.76A9.21,9.21,0,0,0,16.3,58.2c2.55.08,5.11,0,7.66,0h4.16a7.75,7.75,0,0,1,.85,0,3.42,3.42,0,0,1,1.75.72c.34.27.82,1.28,1.25,1.29A.41.41,0,0,0,32.3,60h0c1.17-2,3.39-1.79,5.38-1.79H45c2.13,0,4.21.12,6.2-.85A9.27,9.27,0,0,0,56.42,49Q56.42,45.82,56.42,42.63Zm-48-38H55.59V40.25a5.43,5.43,0,0,0-5,.22,4.94,4.94,0,0,1-5,.13c4.35-4,7.15-10.25,6.5-16.21-.09-.8-2.53.7-2.9.88l-.11.1h0c-.13.53,0,1.16-.07,1.71a34.78,34.78,0,0,1-3.28,1.58c-1.14.48-2.52.72-3.6,1.28-.77.4-.43,1.87-.43,2.67a35.34,35.34,0,0,1-19.45,0V31.19c0-.71.12-1-.64-1.29A41.51,41.51,0,0,1,15,27.11c0-.61.1-1.5-.39-1.9a9.27,9.27,0,0,0-1.67-.85c-.43-.22-.89-.61-1.15,0a6.25,6.25,0,0,0,0,2q0,.88.14,1.75a20.33,20.33,0,0,0,6.46,12.51,5,5,0,0,1-5-.14,5.52,5.52,0,0,0-4.94-.22ZM47.38,33a35.24,35.24,0,0,1-30.82,0,16.78,16.78,0,0,1-.86-2.19,36.11,36.11,0,0,0,32.54.05A17,17,0,0,1,47.38,33Zm-4.93-.58V30.63A35.53,35.53,0,0,0,48.87,28a17,17,0,0,1-.36,1.9A35.3,35.3,0,0,1,42.45,32.42Zm-20.9,0a34.33,34.33,0,0,1-6.12-2.56A16.91,16.91,0,0,1,15.07,28a35.49,35.49,0,0,0,6.48,2.66Zm-.43,7.32a5.46,5.46,0,0,0-2,.52A20,20,0,0,1,12.48,25l1.68.86a17.65,17.65,0,0,0,7,13.89Zm9.79.11c-2,.51-3.48,1.87-5.69,1.15A13.59,13.59,0,0,1,20,37.85,35.77,35.77,0,0,0,30.91,39.85Zm-12-3.2a16.76,16.76,0,0,1-1.78-2.56,36.2,36.2,0,0,0,29.69,0c-.52.91-1.19,2.23-2.14,2.69A21.1,21.1,0,0,1,41,38a35,35,0,0,1-7.48,1.12A38.26,38.26,0,0,1,18.88,36.65Zm25,1.22A13.31,13.31,0,0,1,38.7,41c-2.21.72-3.67-.63-5.7-1.15a35.64,35.64,0,0,0,10.94-2ZM49.66,27.5a10.37,10.37,0,0,0,0-1.68l1.7-.83a20,20,0,0,1-6.54,15.28,5.45,5.45,0,0,0-2.06-.52A17.63,17.63,0,0,0,49.66,27.5m3.47,27.38c-2.85,3.12-7.21,2.47-11,2.47H36.6c-1.75,0-3.42.11-4.6,1.65-1.43-2-3.72-1.68-5.84-1.68H18.6c-2.38,0-4.64,0-6.67-1.52C9.3,53.83,8.4,51,8.4,47.88V41.16a4.79,4.79,0,0,1,4.58.06,5.88,5.88,0,0,0,4.63.61c1.65-.51,2.85-1.55,4.68-1.13,1.59.36,2.81,1.46,4.53,1.4s2.91-1.21,4.52-1.47,2.95.8,4.53,1.24a6.13,6.13,0,0,0,4.63-.73,5,5,0,0,1,4.69.16,5.72,5.72,0,0,0,5.09.31c1.81-.79,3.46-1.55,5.35-.41v5.35h0c0,3.1-.1,6-2.51,8.33Z" fill="#005eb8"/></svg>